<svg xmlns="http://www.w3.org/2000/svg" width="640" height="360" viewBox="0 0 640 360" role="img" aria-label="Line Andon">
  <rect width="640" height="360" fill="#F4F5F7"/>
  <rect x="16" y="16" width="608" height="28" rx="6" fill="#FFFFFF" stroke="#E3E5E8"/>
  <rect x="16" y="56" width="240" height="220" rx="10" fill="#FFFFFF" stroke="#E3E5E8"/>
  <rect x="40" y="80" width="192" height="40" rx="8" fill="#D1FAE5" stroke="#2E9E5B" stroke-width="2"/>
  <circle cx="60" cy="100" r="8" fill="#2E9E5B"/>
  <rect x="40" y="132" width="192" height="40" rx="8" fill="#F4F5F7" opacity="0.7"/>
  <circle cx="60" cy="152" r="8" fill="#E3E5E8"/>
  <rect x="40" y="184" width="192" height="40" rx="8" fill="#F4F5F7" opacity="0.5"/>
  <circle cx="60" cy="204" r="8" fill="#E3E5E8"/>
  <circle cx="136" cy="250" r="22" fill="#2E9E5B"/>
  <rect x="272" y="56" width="352" height="220" rx="10" fill="#FFFFFF" stroke="#E3E5E8"/>
  <circle cx="448" cy="150" r="70" fill="none" stroke="#2E9E5B" stroke-width="14"/>
  <text x="448" y="160" text-anchor="middle" font-family="Segoe UI,Arial" font-size="28" font-weight="700" fill="#1F2329">87%</text>
  <rect x="16" y="288" width="300" height="56" rx="8" fill="#FFFFFF" stroke="#E3E5E8"/>
  <rect x="328" y="288" width="296" height="56" rx="8" fill="#FFFFFF" stroke="#E3E5E8"/>
</svg>