<svg xmlns="http://www.w3.org/2000/svg" width="640" height="360" viewBox="0 0 640 360" role="img" aria-label="Maintenance Wall">
  <rect width="640" height="360" fill="#F4F5F7"/>
  <rect x="16" y="16" width="608" height="28" rx="6" fill="#FFFFFF" stroke="#E3E5E8"/>
  <rect x="16" y="56" width="148" height="90" rx="10" fill="#FFFFFF" stroke="#E3E5E8"/>
  <rect x="36" y="110" width="108" height="18" rx="4" fill="#CFE0FB"/>
  <rect x="172" y="56" width="148" height="90" rx="10" fill="#FFFFFF" stroke="#E3E5E8"/>
  <rect x="192" y="110" width="108" height="18" rx="4" fill="#CFE0FB"/>
  <rect x="328" y="56" width="148" height="90" rx="10" fill="#FFFFFF" stroke="#E3E5E8"/>
  <rect x="348" y="100" width="40" height="40" rx="4" fill="#E8F0FE"/>
  <rect x="484" y="56" width="140" height="90" rx="10" fill="#FFFFFF" stroke="#E3E5E8"/>
  <rect x="504" y="100" width="40" height="40" rx="4" fill="#FEE2E2"/>
  <rect x="16" y="158" width="608" height="70" rx="10" fill="#FFF7ED" stroke="#FDBA74"/>
  <rect x="36" y="182" width="28" height="28" rx="6" fill="#E0A800"/>
  <rect x="80" y="186" width="200" height="12" rx="3" fill="#E3E5E8"/>
  <rect x="80" y="206" width="140" height="10" rx="3" fill="#F4F5F7"/>
  <rect x="16" y="242" width="400" height="102" rx="10" fill="#FFFFFF" stroke="#E3E5E8"/>
  <polyline points="40,310 100,280 160,295 220,260 280,275 340,250 380,265" fill="none" stroke="#2563EB" stroke-width="3"/>
  <rect x="428" y="242" width="196" height="102" rx="10" fill="#FFFFFF" stroke="#E3E5E8"/>
  <rect x="448" y="270" width="120" height="10" rx="3" fill="#FEE2E2"/>
  <rect x="448" y="290" width="90" height="10" rx="3" fill="#FEF3C7"/>
  <rect x="448" y="310" width="60" height="10" rx="3" fill="#E3E5E8"/>
</svg>