<svg xmlns="http://www.w3.org/2000/svg" width="640" height="360" viewBox="0 0 640 360" role="img" aria-label="Shift Supervisor">
  <rect width="640" height="360" fill="#F4F5F7"/>
  <rect x="16" y="16" width="400" height="28" rx="6" fill="#FFFFFF" stroke="#E3E5E8"/>
  <rect x="428" y="16" width="196" height="28" rx="6" fill="#FFFFFF" stroke="#E3E5E8"/>
  <rect x="16" y="56" width="200" height="100" rx="10" fill="#FFFFFF" stroke="#E3E5E8"/>
  <rect x="228" y="56" width="200" height="100" rx="10" fill="#FFFFFF" stroke="#E3E5E8"/>
  <rect x="248" y="100" width="160" height="16" rx="4" fill="#CFE0FB"/>
  <rect x="440" y="56" width="184" height="100" rx="10" fill="#FFFFFF" stroke="#E3E5E8"/>
  <rect x="16" y="168" width="360" height="110" rx="10" fill="#FFFFFF" stroke="#E3E5E8"/>
  <rect x="40" y="220" width="40" height="40" rx="4" fill="#2563EB"/>
  <rect x="92" y="230" width="40" height="30" rx="4" fill="#93C5FD"/>
  <rect x="144" y="210" width="40" height="50" rx="4" fill="#2563EB"/>
  <rect x="196" y="240" width="40" height="20" rx="4" fill="#93C5FD"/>
  <rect x="388" y="168" width="236" height="110" rx="10" fill="#FFFFFF" stroke="#E3E5E8"/>
  <rect x="408" y="196" width="160" height="10" rx="3" fill="#FEE2E2"/>
  <rect x="408" y="216" width="120" height="10" rx="3" fill="#FEF3C7"/>
  <rect x="408" y="236" width="80" height="10" rx="3" fill="#E3E5E8"/>
  <rect x="16" y="290" width="250" height="54" rx="8" fill="#FFF7ED" stroke="#FDBA74"/>
  <rect x="278" y="290" width="346" height="54" rx="8" fill="#FFFFFF" stroke="#2563EB" stroke-width="2"/>
</svg>